<svg xmlns="http://www.w3.org/2000/svg" viewBox="0 0 640 360" role="img" aria-labelledby="title desc">
  <title id="title">N*N Puzzle preview</title>
  <desc id="desc">A stylized sliding puzzle board with numbered tiles.</desc>
  <rect width="640" height="360" fill="#f7f7f4"/>
  <rect x="88" y="44" width="464" height="272" rx="18" fill="#1f2933"/>
  <g transform="translate(118 66)">
    <rect width="80" height="64" rx="10" fill="#ffffff"/>
    <rect x="92" width="80" height="64" rx="10" fill="#e7f0ff"/>
    <rect x="184" width="80" height="64" rx="10" fill="#ffffff"/>
    <rect x="276" width="80" height="64" rx="10" fill="#e9f7ef"/>
    <rect x="368" width="80" height="64" rx="10" fill="#ffffff"/>
    <rect y="76" width="80" height="64" rx="10" fill="#e9f7ef"/>
    <rect x="92" y="76" width="80" height="64" rx="10" fill="#ffffff"/>
    <rect x="184" y="76" width="80" height="64" rx="10" fill="#fff4d8"/>
    <rect x="276" y="76" width="80" height="64" rx="10" fill="#ffffff"/>
    <rect x="368" y="76" width="80" height="64" rx="10" fill="#e7f0ff"/>
    <rect y="152" width="80" height="64" rx="10" fill="#ffffff"/>
    <rect x="92" y="152" width="80" height="64" rx="10" fill="#fff4d8"/>
    <rect x="184" y="152" width="80" height="64" rx="10" fill="#ffffff"/>
    <rect x="276" y="152" width="80" height="64" rx="10" fill="#e7f0ff"/>
    <rect x="368" y="152" width="80" height="64" rx="10" fill="#2f3b46"/>
    <g font-family="Arial, sans-serif" font-size="24" font-weight="700" fill="#1f2933" text-anchor="middle">
      <text x="40" y="41">8</text>
      <text x="132" y="41">1</text>
      <text x="224" y="41">15</text>
      <text x="316" y="41">4</text>
      <text x="408" y="41">2</text>
      <text x="40" y="117">10</text>
      <text x="132" y="117">6</text>
      <text x="224" y="117">11</text>
      <text x="316" y="117">7</text>
      <text x="408" y="117">3</text>
      <text x="40" y="193">12</text>
      <text x="132" y="193">5</text>
      <text x="224" y="193">9</text>
      <text x="316" y="193">14</text>
    </g>
  </g>
  <path d="M472 267 l28 0 l0 -28" fill="none" stroke="#8bd3dd" stroke-width="8" stroke-linecap="round" stroke-linejoin="round"/>
</svg>
